<svg width="50" height="51" viewBox="0 0 50 51" fill="none" xmlns="http://www.w3.org/2000/svg">
<path d="M24.999 2.00171C12.3083 2.00171 1.99902 12.311 1.99902 25.0017C1.99902 37.6924 12.3083 48.0017 24.999 48.0017C37.6897 48.0017 47.999 37.6924 47.999 25.0017C47.999 12.311 37.6897 2.00171 24.999 2.00171ZM24.999 4.00171C36.6088 4.00171 45.999 13.3919 45.999 25.0017C45.999 36.6115 36.6088 46.0017 24.999 46.0017C13.3892 46.0017 3.99902 36.6115 3.99902 25.0017C3.99902 13.3919 13.3892 4.00171 24.999 4.00171ZM30.6924 14.0603C27.0921 14.0603 24.1514 16.9999 24.1514 20.5994C24.1514 20.6247 24.1589 20.6483 24.1592 20.6736C20.3451 20.166 16.9711 18.2831 14.6533 15.4412C14.5511 15.316 14.4202 15.2175 14.2716 15.154C14.123 15.0906 13.9613 15.064 13.8002 15.0767C13.6392 15.0894 13.4836 15.1409 13.3468 15.2268C13.21 15.3127 13.096 15.4305 13.0146 15.5701C12.4518 16.5377 12.1299 17.6655 12.1299 18.8591C12.1299 19.9213 12.4258 20.908 12.8779 21.7986C12.6539 21.846 12.453 21.9688 12.3087 22.1466C12.1644 22.3243 12.0854 22.5462 12.085 22.7751V22.8455C12.085 24.7795 12.99 26.4545 14.3311 27.6541C14.1962 27.7836 14.1004 27.9483 14.0545 28.1296C14.0086 28.3108 14.0144 28.5013 14.0713 28.6794C14.6297 30.4164 15.9314 31.7762 17.5615 32.5427C16.2574 33.1527 14.8601 33.5896 13.3193 33.5896C12.9085 33.5896 12.5092 33.5662 12.1182 33.5193C11.8931 33.492 11.6655 33.542 11.4726 33.6611C11.2797 33.7802 11.133 33.9612 11.0565 34.1746C10.98 34.388 10.9782 34.621 11.0516 34.8356C11.1249 35.0501 11.2689 35.2333 11.46 35.3552C14.0644 37.0263 17.1658 38.0017 20.4893 38.0017C25.8599 38.0017 30.1049 35.7456 32.9424 32.5271C35.7798 29.3086 37.2529 25.1548 37.2529 21.2419C37.2529 21.1244 37.2475 21.012 37.2451 20.8962C38.219 20.1144 39.1349 19.2522 39.8291 18.2126C39.9438 18.041 40.0026 17.838 39.9973 17.6317C39.9921 17.4253 39.9231 17.2256 39.7999 17.0599C39.6766 16.8943 39.5051 16.7709 39.3089 16.7066C39.1127 16.6423 38.9015 16.6403 38.7041 16.7009C38.8657 16.3863 39.0945 16.1132 39.2041 15.7712C39.2659 15.5782 39.2675 15.3709 39.2088 15.1769C39.1501 14.9829 39.0339 14.8112 38.8754 14.6848C38.717 14.5583 38.5239 14.483 38.3217 14.4688C38.1195 14.4546 37.9177 14.5022 37.7432 14.6052C36.8686 15.1234 35.8859 15.4651 34.8682 15.7029C33.7248 14.7287 32.3043 14.0603 30.6924 14.0603ZM30.6924 16.0603C32.0046 16.0603 33.1773 16.6087 34.0049 17.4919C34.1206 17.6158 34.2659 17.7082 34.4272 17.7605C34.5885 17.8127 34.7604 17.8232 34.9268 17.7908C35.0787 17.7609 35.2007 17.6642 35.3506 17.6287C35.332 17.6402 35.3205 17.6604 35.3018 17.6716C35.1132 17.7848 34.9672 17.957 34.8864 18.1616C34.8056 18.3661 34.7945 18.5916 34.8547 18.8031C34.915 19.0147 35.0433 19.2004 35.2198 19.3316C35.3963 19.4629 35.6111 19.5322 35.8311 19.5291C35.7624 19.5814 35.7214 19.664 35.6514 19.7146C35.5171 19.8115 35.409 19.9402 35.3367 20.0891C35.2644 20.2381 35.2303 20.4027 35.2373 20.5681C35.2468 20.7924 35.2529 21.0175 35.2529 21.2419C35.2529 24.6471 33.9387 28.3733 31.4424 31.2048C28.9461 34.0363 25.3076 36.0017 20.4893 36.0017C18.8361 36.0017 17.2807 35.6714 15.7998 35.1697C17.6421 34.7793 19.3863 34.1269 20.8154 33.0056C20.9772 32.8781 21.0956 32.7037 21.1545 32.5063C21.2134 32.3089 21.2099 32.0982 21.1445 31.9028C21.0791 31.7075 20.955 31.5371 20.7891 31.415C20.6232 31.2929 20.4237 31.2249 20.2178 31.2205C18.8021 31.1947 17.7118 30.3941 16.8975 29.3611C17.1966 29.3224 17.5061 29.321 17.792 29.2419C18.0092 29.1824 18.2 29.0514 18.3334 28.8699C18.4669 28.6885 18.5352 28.4673 18.5273 28.2422C18.5194 28.0172 18.4357 27.8013 18.2899 27.6297C18.144 27.4581 17.9445 27.3407 17.7236 27.2966C16.0722 26.9633 14.784 25.7247 14.3115 24.1228C14.7368 24.2252 15.1095 24.4541 15.5615 24.4685C15.7784 24.4751 15.9916 24.4111 16.1689 24.2859C16.3462 24.1608 16.4779 23.9814 16.5443 23.7747C16.6107 23.5681 16.6081 23.3456 16.5368 23.1406C16.4656 22.9356 16.3296 22.7593 16.1494 22.6384C14.9297 21.8228 14.1299 20.4414 14.1299 18.8591C14.1299 18.5321 14.3054 18.2722 14.3701 17.9666C17.2106 20.7784 20.9909 22.6446 25.2471 22.8591C25.402 22.8669 25.5565 22.8385 25.6986 22.7763C25.8406 22.714 25.9663 22.6196 26.0655 22.5004C26.1648 22.3813 26.235 22.2406 26.2706 22.0897C26.3061 21.9387 26.3061 21.7816 26.2705 21.6306C26.1927 21.3015 26.1514 20.9581 26.1514 20.5994C26.1514 18.0808 28.1727 16.0603 30.6924 16.0603Z" fill="white"/>
</svg>
