<svg width="50" height="50" viewBox="0 0 50 50" fill="none" xmlns="http://www.w3.org/2000/svg">
<path d="M25 2.00073C12.3093 2.00073 2 12.31 2 25.0007C2 37.6914 12.3093 48.0007 25 48.0007C37.6907 48.0007 48 37.6914 48 25.0007C48 12.31 37.6907 2.00073 25 2.00073ZM25 4.00073C36.6098 4.00073 46 13.3909 46 25.0007C46 36.6105 36.6098 46.0007 25 46.0007C13.3902 46.0007 4 36.6105 4 25.0007C4 13.3909 13.3902 4.00073 25 4.00073ZM15.002 18.0007L10.9668 18.0027C10.9668 18.0027 10.7359 17.9897 10.457 18.0261C10.1782 18.0626 9.76619 18.0795 9.34375 18.5574L9.3418 18.5593L9.33984 18.5613C8.96408 18.991 8.97842 19.4911 9.02539 19.7664C9.07219 20.0406 9.17696 20.2453 9.17773 20.2468V20.2488C9.21653 20.344 12.1464 27.5227 15.8398 31.3796C18.4451 34.102 21.2314 35.0007 23.7129 35.0007H25C25.4235 35.0007 25.8016 34.9815 26.2207 34.7644C26.6397 34.5473 27 33.9483 27 33.4831C27 32.982 27.0123 32.4961 27.0762 32.2253C27.1358 31.9724 27.1128 32.0345 27.1367 32.0339C27.1607 32.0391 27.2043 32.0492 27.2871 32.0867C27.4655 32.1673 27.7411 32.3474 28.0469 32.5847C28.6574 33.0587 29.3805 33.7463 30.1914 34.2781C31.3528 35.0478 32.6133 35.0007 32.6133 35.0007H36.7695L36.8144 34.9968C36.8144 34.9968 37.4522 34.9823 38.1074 34.5808C38.435 34.38 38.8244 34.0118 38.9551 33.4597C39.0858 32.9077 38.9189 32.3285 38.5976 31.8191C38.4803 31.6322 37.9106 30.8066 35.6367 28.7878C35.0492 28.2668 34.6486 27.898 34.4902 27.7019C34.434 27.6323 34.4293 27.639 34.418 27.6355C34.4312 27.6013 34.5626 27.3246 34.9141 26.8679C35.2804 26.3919 35.837 25.7287 36.5527 24.8171C37.465 23.6549 38.105 22.5374 38.5078 21.5945C38.7092 21.123 38.852 20.6952 38.9375 20.3074C39.023 19.9196 39.0913 19.5972 38.9648 19.1374C38.8705 18.7952 38.6144 18.4887 38.3633 18.3269C38.1122 18.1651 37.8781 18.1042 37.668 18.0652C37.2477 17.9872 36.8769 18.0007 36.5312 18.0007C35.8074 18.0007 32.5898 18.0261 32.3242 18.0261C32.0125 18.0261 31.5152 18.1559 31.2851 18.2878C30.7139 18.615 30.5351 19.0632 30.5351 19.0632L30.4805 19.1589L30.4492 19.2664C30.4492 19.2664 29.7165 21.6366 28.9629 22.8581H28.9609C28.0747 24.2973 27.4137 24.8681 27.123 25.03C27.0922 25.0472 27.1093 25.0381 27.0879 25.0496C27.0651 24.9833 27.0365 24.8922 27.0176 24.7234C26.9751 24.3432 27 23.8077 27 23.2898C27 21.8554 27.1077 20.9609 26.9883 20.114C26.9286 19.6906 26.7765 19.219 26.4297 18.8562C26.0829 18.4934 25.6349 18.3148 25.1875 18.2117H25.1855C24.7193 18.1043 24.2169 18.0121 23.0098 18.0007C21.4718 17.9864 20.4701 18.0341 19.5801 18.4304L19.5703 18.4363L19.5625 18.4402C19.2108 18.6054 18.9336 18.7947 18.6894 19.0476C18.5674 19.174 18.4226 19.2661 18.3223 19.6687C18.2721 19.87 18.2666 20.2508 18.4941 20.5593C18.7217 20.8678 19.0405 20.9609 19.2285 20.9851C19.1938 20.9806 19.3764 21.0208 19.5176 21.0906C19.6587 21.1604 19.7813 21.2608 19.8125 21.3015V21.3035C19.7994 21.2865 19.935 21.6234 19.9707 21.9304C20.0064 22.2375 20 22.4851 20 22.4851L19.998 22.5456L20.0039 22.6062C20.0039 22.6062 20.0653 23.2857 20.0332 23.9871C20.0171 24.3378 19.9728 24.6907 19.9141 24.907C19.911 24.9184 19.9095 24.9144 19.9062 24.9246C19.6559 24.7497 19.0786 24.1404 18.2832 22.8269C17.548 21.6118 16.8594 19.4265 16.8594 19.4265L16.8437 19.3777L16.8262 19.3308C16.8262 19.3308 16.6978 18.8426 16.1309 18.4441C15.5995 18.07 15.0937 18.0183 15.0937 18.0183L15.002 18.0007ZM14.7695 20.0007C14.8267 20.0216 14.9463 20.0647 14.9687 20.0749L14.9453 20.0046C14.9453 20.0046 14.9761 20.0753 14.9766 20.0769C14.9768 20.077 14.9804 20.0788 14.9805 20.0789V20.0808H14.9824C14.9322 20.0456 14.9748 20.0805 14.9805 20.0886C15.0081 20.1828 15.6187 22.2862 16.5723 23.8621C17.4409 25.2967 18.0827 26.1004 18.7832 26.5808C19.483 27.0608 20.424 27.0113 20.9023 26.7624C21.5416 26.4305 21.7203 25.8849 21.8437 25.4304C21.9672 24.976 22.0113 24.5149 22.0312 24.0789C22.0693 23.2469 22.0042 22.5663 21.998 22.4988C21.999 22.4612 22.0079 22.1361 21.957 21.698C21.9057 21.2565 21.8137 20.7079 21.4219 20.157C21.8608 20.0918 22.1044 19.9925 22.9902 20.0007C24.1199 20.0114 24.2917 20.0585 24.7363 20.1609C24.9785 20.2167 25.0053 20.263 24.9824 20.239C24.9595 20.215 24.9804 20.199 25.0078 20.3933C25.0626 20.7818 25 21.7782 25 23.2898C25 23.7159 24.9589 24.3168 25.0293 24.946C25.0997 25.5749 25.2962 26.3796 26.0566 26.8503C26.4899 27.1185 27.3176 27.2107 28.0977 26.7761C28.8777 26.3415 29.6782 25.5079 30.6641 23.907C31.6378 22.3285 32.2202 20.2533 32.2832 20.0339C32.2832 20.0339 32.2943 20.0267 32.3008 20.0222C32.3184 20.0231 32.296 20.0261 32.3242 20.0261C32.6946 20.0261 35.8551 20.0007 36.5312 20.0007C36.7173 20.0007 36.7989 20.0107 36.9375 20.0164C36.8815 20.2323 36.8062 20.4837 36.668 20.8074C36.343 21.5682 35.7853 22.555 34.9785 23.5828C34.2832 24.4682 33.7431 25.1105 33.3301 25.6472C32.917 26.184 32.5926 26.6073 32.457 27.2195C32.3215 27.8316 32.5801 28.5221 32.9336 28.9597C33.2871 29.3974 33.7245 29.7659 34.3086 30.2839C36.5087 32.2372 36.8696 32.8284 36.9043 32.8835V32.8855C36.9414 32.9444 36.9174 32.8852 36.9316 32.9148C36.8069 32.9537 36.6584 32.9977 36.6445 33.0007H32.5976H32.5918C32.5918 33.0007 31.8475 32.9763 31.2949 32.6101L31.293 32.6081H31.291C30.7065 32.2253 30 31.5687 29.2734 31.0046C28.9102 30.7226 28.5403 30.4583 28.1113 30.2644C27.6823 30.0705 27.1386 29.933 26.5664 30.1042C25.7381 30.3521 25.2785 31.1404 25.1309 31.7664C25.0249 32.2157 25.0405 32.6065 25.0371 32.9988C25.0086 33.0003 25.0333 33.0007 25 33.0007H23.7129C21.6804 33.0007 19.5659 32.3803 17.2852 29.9968C14.32 26.9004 11.6745 20.9123 11.2773 20.0027L14.7695 20.0007ZM32.2129 20.0085C32.1947 20.0126 32.2467 20.0165 32.2891 20.0203C32.2833 20.0234 32.2895 20.0175 32.2812 20.0222C32.2804 20.0055 32.2373 20.0031 32.2129 20.0085Z" fill="#FFF5F5"/>
</svg>
