<svg width="50" height="50" viewBox="0 0 50 50" fill="none" xmlns="http://www.w3.org/2000/svg">
<path d="M24.999 3C12.8606 3 2.99902 12.8616 2.99902 25C2.99902 36.0191 11.1266 45.1384 21.7119 46.7285L22.8604 46.9023V29.5664H17.6631V26.0469H22.8604V21.373C22.8604 18.495 23.551 16.5994 24.6943 15.4102C25.8377 14.2209 27.527 13.6211 29.8779 13.6211C31.7577 13.6211 32.489 13.735 33.1846 13.8203V16.7012H30.7373C29.3487 16.7012 28.2095 17.4759 27.6182 18.5078C27.0269 19.5397 26.8428 20.7718 26.8428 22.0273V26.0449H32.9658L32.4209 29.5645H26.8428V46.9297L27.9775 46.7754C38.7134 45.3194 46.999 36.1268 46.999 25C46.999 12.8616 37.1375 3 24.999 3ZM24.999 5C36.0566 5 44.999 13.9424 44.999 25C44.999 34.7298 38.0348 42.7318 28.8428 44.5332V31.5645H34.1357L35.2979 24.0449H28.8428V22.0273C28.8428 20.9899 29.0326 20.0603 29.3525 19.502C29.6725 18.9436 29.9809 18.7012 30.7373 18.7012H35.1846V12.0098L34.3174 11.8926C33.7176 11.8114 32.3482 11.6211 29.8779 11.6211C27.1748 11.6211 24.8546 12.3574 23.2529 14.0234C21.6513 15.6894 20.8604 18.1701 20.8604 21.373V24.0469H15.6631V31.5664H20.8604V44.4707C11.816 42.5548 4.99902 34.6244 4.99902 25C4.99902 13.9424 13.9415 5 24.999 5Z" fill="white"/>
</svg>
